<svg height="512" viewBox="0 0 64 64" width="512" xmlns="http://www.w3.org/2000/svg"><g id="Filled_outline" data-name="Filled outline"><path d="m48 61h-32v-4l-2-3 2-18v-6l-4-17 5-2h30l5 2-4 17v6l2 18-2 3z" fill="#195c85"/><circle cx="32" cy="40" fill="#f4f4e6" r="11"/><path d="m16 59h-11v-5h9l2 3z" fill="#32b1cc"/><path d="m5.988 32.147-2.988 19.853 2 2h9l2-18z" fill="#87cee9"/><path d="m32 11h-15l-2-4 2-4z" fill="#e1462b"/><path d="m32 11h15l2-4-2-4z" fill="#e1462b"/><path d="m17 3 15 8 15-8z" fill="#ad3323"/><path d="m12 13-9 18 13 5v-6z" fill="#e1462b"/><path d="m48 59h11v-5h-9l-2 3z" fill="#32b1cc"/><path d="m58.012 32.147 2.988 19.853-2 2h-9l-2-18z" fill="#87cee9"/><path d="m52 13 9 18-13 5v-6z" fill="#e1462b"/><path d="m26 40v2l2 1v3h8v-3l2-1v-2c0-3.314-2-6-6-6-4 0-6 2.686-6 6z" fill="#f9bb4b"/><path d="m16 57h32v4h-32z" fill="#155372"/><path d="m61.932 31.361a1 1 0 0 0 -.037-.808l-9-18a2.779 2.779 0 0 0 -.2-.27c-.025-.025-.3-.206-.319-.212l-3.991-1.6 1.515-3.024a1 1 0 0 0 0-.894l-2-4a1 1 0 0 0 -.591-.506 1.91 1.91 0 0 0 -.309-.047h-30a1.91 1.91 0 0 0 -.3.047 1 1 0 0 0 -.591.506l-2 4a1 1 0 0 0 0 .894l1.514 3.028-3.991 1.6c-.015.006-.294.187-.319.211a2.89 2.89 0 0 0 -.2.271l-9 18a1 1 0 0 0 .536 1.381l2.231.862-2.869 19.052a1 1 0 0 0 .282.855l1.707 1.707v4.586a1 1 0 0 0 1 1h10v1a1 1 0 0 0 1 1h32a1 1 0 0 0 1-1v-1h10a1 1 0 0 0 1-1v-4.586l1.707-1.707a1 1 0 0 0 .282-.855l-2.869-19.052 2.239-.861a1 1 0 0 0 .573-.578zm-14.05-24.361-1.5 3h-10.382l10.565-5.634zm-4.882-3-11 5.866-11-5.866zm-25.564.366 10.564 5.634h-10.382l-1.5-3zm-13.372 47.283 2.727-18.119 8.13 3.127-1.816 16.343h-7.691zm10.936 6.351h-9v-3h7.465l1.535 2.3zm0-23.456-10.613-4.082 7.272-14.544 3.341 14.198zm32 25.456h-30v-2h30zm.026-30.229a1.038 1.038 0 0 0 -.026.229v6a1 1 0 0 0 .006.11l1.96 17.638-1.501 2.252h-30.93l-1.5-2.252 1.96-17.638a1 1 0 0 0 .005-.11v-6a1.038 1.038 0 0 0 -.026-.229l-3.8-16.163 4.018-1.608h10.808v10h2v-10h4v14h2v-14h10.808l4.021 1.608zm10.974 28.229h-9v-.7l1.535-2.3h7.465zm1.936-6.351-1.35 1.351h-7.686l-1.821-16.343 8.13-3.127zm-10.936-17.105v-4.428l3.341-14.2 7.272 14.544z"/><path d="m32 33a6.627 6.627 0 0 0 -7 7v2a1 1 0 0 0 .553.9l1.447.718v2.382a1 1 0 0 0 1 1h8a1 1 0 0 0 1-1v-2.382l1.447-.723a1 1 0 0 0 .553-.895v-2a6.627 6.627 0 0 0 -7-7zm5 8.382-1.447.723a1 1 0 0 0 -.553.895v2h-2v-3h-2v3h-2v-2a1 1 0 0 0 -.553-.9l-1.447-.718v-1.382c0-3.131 1.869-5 5-5s5 1.869 5 5z"/><path d="m29 38h2v2h-2z"/><path d="m33 38h2v2h-2z"/><path d="m32 28a12 12 0 1 0 12 12 12.013 12.013 0 0 0 -12-12zm0 22a10 10 0 1 1 10-10 10.011 10.011 0 0 1 -10 10z"/><path d="m19.085 51.671.895-4.471-1.96-.4-1 5a1 1 0 0 0 .273.9l1 1a1 1 0 0 0 .707.3h4v-2h-3.586z"/><path d="m45.98 46.8-1.96.392.895 4.475-.329.333h-3.586v2h4a1 1 0 0 0 .707-.293l1-1a1 1 0 0 0 .273-.9z"/><path d="m43 18h2v2h-2z"/><path d="m40 22h2v2h-2z"/></g></svg>