<?xml version="1.0" encoding="iso-8859-1"?>
<!-- Generator: Adobe Illustrator 19.0.0, SVG Export Plug-In . SVG Version: 6.00 Build 0)  -->
<svg version="1.1" id="Capa_1" xmlns="http://www.w3.org/2000/svg" xmlns:xlink="http://www.w3.org/1999/xlink" x="0px" y="0px"
	 viewBox="0 0 430.081 430.081" style="enable-background:new 0 0 430.081 430.081;" xml:space="preserve">
<path style="fill:#FFFFFF;" d="M215.045,55.968c-29.99,0.212-51.22-15.469-62.034-49.14L27.31,63.61l30.845,77.414l54.095-15.488
	l-3.297,92.918h212.183l-3.297-92.918l54.095,15.488l30.845-77.414L277.077,6.828C266.265,40.498,245.032,56.179,215.045,55.968
	L215.045,55.968z"/>
<path style="fill:#602F75;" d="M321.136,225.281H108.951c-1.852,0-3.627-0.753-4.912-2.086c-1.287-1.333-1.976-3.132-1.911-4.983
	l2.964-83.526l-45.059,12.901c-3.374,0.964-6.924-0.78-8.221-4.036L20.966,66.136c-1.352-3.391,0.205-7.245,3.531-8.748
	L150.196,0.605c1.773-0.8,3.804-0.807,5.581-0.017c1.778,0.788,3.133,2.299,3.729,4.152c9.658,30.073,27.808,44.662,55.485,44.401
	c0.032,0,0.065,0,0.097,0c27.65,0.232,45.829-14.327,55.485-44.401c0.596-1.852,1.952-3.362,3.729-4.152
	c1.777-0.79,3.808-0.783,5.581,0.017l125.699,56.783c3.328,1.502,4.883,5.357,3.531,8.748l-30.843,77.414
	c-1.299,3.256-4.854,5.001-8.221,4.036l-45.059-12.901l2.964,83.526c0.067,1.852-0.625,3.651-1.911,4.983
	C324.761,224.528,322.988,225.281,321.136,225.281z M116.024,211.628h198.038l-3.046-85.849c-0.077-2.185,0.896-4.273,2.616-5.62
	c1.722-1.347,3.983-1.787,6.084-1.186l48.159,13.788l26.143-65.618L281.023,16.1c-12.228,31.201-34.357,46.928-65.98,46.694
	c-31.515,0.266-53.75-15.493-65.981-46.693L36.066,67.145l26.144,65.618l48.159-13.788c2.103-0.602,4.364-0.16,6.084,1.186
	c1.722,1.347,2.695,3.436,2.616,5.62L116.024,211.628z"/>
<rect x="177.496" y="75.094" style="fill:#EA3457;" width="81.92" height="136.533"/>
<path style="fill:#FFFFFF;" d="M109.909,30.289c16.84,34.695,16.13,68.828-1.459,102.4"/>
<path style="fill:#602F75;" d="M114.496,135.857l-12.093-6.337c16.795-32.055,17.242-63.539,1.364-96.251l12.285-5.961
	C133.703,63.677,133.181,100.199,114.496,135.857z"/>
<path style="fill:#FFFFFF;" d="M319.395,30.287c-16.836,34.695-16.128,68.828,1.461,102.4"/>
<path style="fill:#602F75;" d="M314.81,135.857c-18.683-35.657-19.205-72.178-1.556-108.549l12.283,5.961
	c-15.875,32.713-15.428,64.196,1.365,96.251L314.81,135.857z"/>
<path style="fill:#602F75;" d="M218.456,102.401c-1.802,0-3.557-0.73-4.826-2c-1.27-1.27-2-3.031-2-4.826s0.73-3.55,2-4.826
	c2.519-2.533,7.107-2.546,9.653,0c1.27,1.27,2,3.031,2,4.826c0,1.802-0.73,3.564-2,4.826
	C222.006,101.67,220.252,102.401,218.456,102.401z"/>
<path style="fill:#602F75;" d="M218.456,150.188c-1.802,0-3.564-0.73-4.826-2c-1.27-1.277-2-3.031-2-4.826
	c0-1.795,0.73-3.557,2-4.826c2.533-2.54,7.1-2.553,9.653,0c1.27,1.263,2,3.024,2,4.826c0,1.795-0.73,3.557-2,4.826
	C222.013,149.457,220.252,150.188,218.456,150.188z"/>
<path style="fill:#602F75;" d="M218.456,191.148c-1.802,0-3.564-0.73-4.826-2c-1.27-1.27-2-3.031-2-4.826
	c0-1.795,0.73-3.557,2-4.826c2.526-2.54,7.107-2.546,9.653,0c1.27,1.27,2,3.031,2,4.826c0,1.802-0.73,3.557-2,4.826
	C222.013,190.417,220.252,191.148,218.456,191.148z"/>
<path style="fill:#00E7FF;" d="M116.254,245.761c65.864,0,131.712,0,197.576,0l20.68,177.493h-84.465l-35.002-107.643
	l-35.004,107.643H95.576L116.254,245.761L116.254,245.761z"/>
<path style="fill:#602F75;" d="M334.51,430.081h-84.465c-2.956,0-5.577-1.903-6.492-4.716l-28.51-87.678l-28.512,87.678
	c-0.915,2.811-3.535,4.716-6.492,4.716H95.576c-1.949,0-3.804-0.833-5.1-2.287c-1.295-1.456-1.906-3.395-1.681-5.33l20.678-177.493
	c0.401-3.441,3.316-6.036,6.781-6.036H313.83c3.465,0,6.38,2.596,6.781,6.036l20.68,177.493c0.225,1.935-0.387,3.874-1.681,5.33
	C338.314,429.248,336.459,430.081,334.51,430.081z M255.004,416.428h71.837l-19.089-163.84H122.332l-19.087,163.84h71.837
	L208.551,313.5c0.915-2.811,3.535-4.716,6.492-4.716s5.577,1.903,6.492,4.716L255.004,416.428z"/>
<path style="fill:#602F75;" d="M245.763,320.854h-47.787c-3.77,0-6.827-3.057-6.827-6.827s3.057-6.827,6.827-6.827h47.787
	c3.77,0,6.827,3.057,6.827,6.827S249.533,320.854,245.763,320.854z"/>
<rect x="102.403" y="382.294" style="fill:#602F75;" width="88.747" height="13.653"/>
<rect x="238.936" y="382.294" style="fill:#602F75;" width="95.573" height="13.653"/>
<g>
</g>
<g>
</g>
<g>
</g>
<g>
</g>
<g>
</g>
<g>
</g>
<g>
</g>
<g>
</g>
<g>
</g>
<g>
</g>
<g>
</g>
<g>
</g>
<g>
</g>
<g>
</g>
<g>
</g>
</svg>
